{"title":"Atlanta S01E01 The Big Bang 1080p AMZN WEBRip HEVC DD5.1 x265","uid":15783101,"size":453934019,"categoryP":"video","categoryS":"hd___tv_shows","magnet":"?xt=urn:btih:ebebff7d1a63532aa7dab6fc3654a9844d0f99da&amp;dn=Atlanta+S01E01+The+Big+Bang+1080p+AMZN+WEBRip+HEVC+DD5.1+x265&amp;tr=udp%3A%2F%2Ftracker.leechers-paradise.org%3A6969&amp;tr=udp%3A%2F%2Fzer0day.ch%3A1337&amp;tr=udp%3A%2F%2Fopen.demonii.com%3A1337&amp;tr=udp%3A%2F%2Ftracker.coppersurfer.tk%3A6969&amp;tr=udp%3A%2F%2Fexodus.desync.com%3A6969","seeders":35,"leechers":2,"uploader":"nayhtut","files":1,"time":1473299208,"description":"Source:  Atlanta S01E01 The Big Bang 1080p AMZN WEBRip DD5.1 x264-NTb (2.6 GB)\r\n \r\nComplete name                            : Atlanta.S01E01.The.Big.Bang.1080p.AMZN.WEBRip.HEVC.DD5.1.x265.mkv\r\nFormat                                   : Matroska\r\nFormat version                           : Version 4 / Version 2\r\nFile size                                : 433 MiB\r\nDuration                                 : 27mn 32s\r\nOverall bit rate                         : 2 198 Kbps\r\nWriting application                      : Lavf57.25.100\r\nWriting library                          : Lavf57.25.100\r\n\r\nVideo\r\n\r\nID                                       : 1\r\nFormat                                   : V_MPEGH/ISO/HEVC\r\nCodec ID                                 : V_MPEGH/ISO/HEVC\r\nDuration                                 : 27mn 32s\r\nBit rate                                 : 1 770 Kbps\r\nWidth                                    : 1 920 pixels\r\nHeight                                   : 1 080 pixels\r\nDisplay aspect ratio                     : 16:9\r\nFrame rate                               : 25.000 fps\r\nBits/(Pixel*Frame)                       : 0.034\r\nStream size                              : 349 MiB (81%)\r\nWriting library                          : Lavc57.48.101 libx265\r\nDefault                                  : Yes\r\nForced                                   : No\r\nDURATION                                 : 00:27:32.491000000\r\n\r\nAudio\r\n\r\nID                                       : 2\r\nFormat                                   : AC-3\r\nFormat/Info                              : Audio Coding 3\r\nMode extension                           : CM (complete main)\r\nFormat settings, Endianness              : Big\r\nCodec ID                                 : A_AC3\r\nDuration                                 : 27mn 32s\r\nBit rate mode                            : Constant\r\nBit rate                                 : 384 Kbps\r\nChannel(s)                               : 6 channels\r\nChannel positions                        : Front: L C R, Side: L R, LFE\r\nSampling rate                            : 48.0 KHz\r\nBit depth                                : 16 bits\r\nCompression mode                         : Lossy\r\nStream size                              : 75.6 MiB (17%)\r\nWriting library                          : Lavc57.24.102 ac3\r\nLanguage                                 : English\r\nDefault                                  : Yes\r\nForced                                   : No\r\nDURATION                                 : 00:27:32.479000000\r\n\r\nText\r\n\r\nID                                       : 3\r\nFormat                                   : ASS\r\nCodec ID                                 : S_TEXT/ASS\r\nCodec ID/Info                            : Advanced Sub Station Alpha\r\nCompression mode                         : Lossless\r\nWriting library                          : Lavc57.24.102 ass","torrent":{"xt":"urn:btih:ebebff7d1a63532aa7dab6fc3654a9844d0f99da","amp;dn":"Atlanta+S01E01+The+Big+Bang+1080p+AMZN+WEBRip+HEVC+DD5.1+x265","amp;tr":["udp%3A%2F%2Ftracker.leechers-paradise.org%3A6969","udp%3A%2F%2Fzer0day.ch%3A1337","udp%3A%2F%2Fopen.demonii.com%3A1337","udp%3A%2F%2Ftracker.coppersurfer.tk%3A6969","udp%3A%2F%2Fexodus.desync.com%3A6969"],"infoHash":"ebebff7d1a63532aa7dab6fc3654a9844d0f99da","infoHashBuffer":{"type":"Buffer","data":[235,235,255,125,26,99,83,42,167,218,182,252,54,84,169,132,77,15,153,218]},"announce":[],"urlList":[]}}